<svg xmlns="http://www.w3.org/2000/svg" viewBox="0 0 2100 1280" role="img" aria-labelledby="title desc">
  <title id="title">Figure 6.2.1 — Algorithmic Render Topology (verbx)</title>
  <desc id="desc">Readable orthogonal signal-flow graph for algorithmic render path: input, pre-delay, allpass diffusion, FDN core with optional DFM branch, wet path, dry path, and final mix/output.</desc>
  <defs>
    <linearGradient id="bg" x1="0" y1="0" x2="0" y2="1">
      <stop offset="0%" stop-color="#f8fbff"/>
      <stop offset="100%" stop-color="#edf4fd"/>
    </linearGradient>
    <linearGradient id="card" x1="0" y1="0" x2="1" y2="1">
      <stop offset="0%" stop-color="#ffffff"/>
      <stop offset="100%" stop-color="#f7fbff"/>
    </linearGradient>
    <marker id="arrow" viewBox="0 0 12 12" refX="10" refY="6" markerWidth="9" markerHeight="9" orient="auto">
      <path d="M1,1 L11,6 L1,11 Z" fill="#274164"/>
    </marker>
    <style>
      .panel { fill: #ffffff; stroke: #d4e2f4; stroke-width: 2.2; }
      .group { fill: #f2f8ff; stroke: #6b87ad; stroke-width: 2.2; }
      .card { fill: url(#card); stroke: #708aae; stroke-width: 2; }
      .line { fill: none; stroke: #274164; stroke-width: 3.1; marker-end: url(#arrow); }
      .line-soft { fill: none; stroke: #577ba6; stroke-width: 2.8; marker-end: url(#arrow); }
      .loop { fill: none; stroke: #4f739f; stroke-width: 2.5; stroke-dasharray: 10 7; marker-end: url(#arrow); }
      .title { fill: #132842; font-family: "Helvetica Neue", Helvetica, Arial, sans-serif; font-size: 36px; font-weight: 700; }
      .subtitle { fill: #2d4d79; font-family: "Helvetica Neue", Helvetica, Arial, sans-serif; font-size: 18px; font-weight: 600; }
      .h2 { fill: #173153; font-family: "Helvetica Neue", Helvetica, Arial, sans-serif; font-size: 24px; font-weight: 700; }
      .label { fill: #173153; font-family: "Helvetica Neue", Helvetica, Arial, sans-serif; font-size: 20px; font-weight: 700; }
      .small { fill: #34547f; font-family: "Helvetica Neue", Helvetica, Arial, sans-serif; font-size: 15px; }
      .mono { font-family: "Menlo", "Consolas", monospace; }
      .eq { fill: #183356; font-family: "Menlo", "Consolas", monospace; font-size: 15px; }
      .notebox { fill: #f5f9ff; stroke: #d8e4f6; stroke-width: 2; }
    </style>
  </defs>

  <rect x="0" y="0" width="2100" height="1280" fill="url(#bg)"/>
  <rect class="panel" x="52" y="64" width="1996" height="1158" rx="20"/>

  <text class="title" x="92" y="126">Figure 6.2.1 — Algorithmic Render Topology (Orthogonal, Readable)</text>
  <text class="subtitle" x="92" y="160">Implemented in <tspan class="mono">src/verbx/core/algo_reverb.py</tspan> and selected by <tspan class="mono">verbx render --engine algo</tspan></text>

  <!-- Front-end chain -->
  <rect class="card" x="100" y="240" width="220" height="96" rx="12"/>
  <text class="label" x="210" y="296" text-anchor="middle">Input</text>

  <rect class="card" x="390" y="240" width="250" height="96" rx="12"/>
  <text class="label" x="515" y="286" text-anchor="middle">Pre-delay</text>
  <text class="small" x="515" y="310" text-anchor="middle"><tspan class="mono">--pre-delay-ms</tspan></text>

  <rect class="card" x="710" y="228" width="320" height="120" rx="12"/>
  <text class="label" x="870" y="278" text-anchor="middle">Allpass Diffusion</text>
  <text class="small" x="870" y="302" text-anchor="middle"><tspan class="mono">--allpass-stages --allpass-gain</tspan></text>
  <text class="small" x="870" y="324" text-anchor="middle"><tspan class="mono">--allpass-delays-ms</tspan></text>

  <path class="line" d="M320,288 H390"/>
  <path class="line" d="M640,288 H710"/>

  <!-- FDN core block -->
  <rect class="group" x="1060" y="180" width="940" height="720" rx="16"/>
  <text class="h2" x="1092" y="224">FDN Late Core (per channel)</text>

  <rect class="card" x="1120" y="420" width="190" height="100" rx="12"/>
  <text class="label" x="1215" y="478" text-anchor="middle">Delay Reads</text>

  <rect class="card" x="1350" y="420" width="220" height="100" rx="12"/>
  <text class="label" x="1460" y="466" text-anchor="middle">Loop Filters</text>
  <text class="small" x="1460" y="490" text-anchor="middle">LP + DC block</text>

  <rect class="card" x="1610" y="420" width="180" height="100" rx="12"/>
  <text class="label" x="1700" y="466" text-anchor="middle">Matrix M</text>
  <text class="small" x="1700" y="490" text-anchor="middle">family select</text>

  <rect class="card" x="1820" y="420" width="100" height="100" rx="12"/>
  <text class="label" x="1870" y="466" text-anchor="middle">G</text>
  <text class="small" x="1870" y="490" text-anchor="middle">RT60</text>

  <circle cx="1870" cy="630" r="36" fill="#ffffff" stroke="#5f7da6" stroke-width="2.3"/>
  <text class="label" x="1870" y="638" text-anchor="middle">+</text>

  <rect class="card" x="1280" y="260" width="280" height="100" rx="12"/>
  <text class="label" x="1420" y="306" text-anchor="middle">Injection u[n]/sqrt(N)</text>
  <text class="small" x="1420" y="330" text-anchor="middle">from diffusion output</text>

  <rect class="card" x="1600" y="560" width="220" height="100" rx="12"/>
  <text class="label" x="1710" y="606" text-anchor="middle">Optional DFM</text>
  <text class="small" x="1710" y="630" text-anchor="middle"><tspan class="mono">--fdn-dfm-delays-ms</tspan></text>

  <rect class="card" x="1400" y="720" width="220" height="100" rx="12"/>
  <text class="label" x="1510" y="778" text-anchor="middle">Wet Tap</text>

  <rect class="card" x="1680" y="720" width="220" height="100" rx="12"/>
  <text class="label" x="1790" y="766" text-anchor="middle">Wet Post</text>
  <text class="small" x="1790" y="790" text-anchor="middle">width + shimmer + tone</text>

  <!-- Core signal lines -->
  <path class="line" d="M1030,288 H1120 V470"/>
  <path class="line" d="M1310,470 H1350"/>
  <path class="line" d="M1570,470 H1610"/>
  <path class="line" d="M1790,470 H1820"/>
  <path class="line" d="M1870,520 V594"/>

  <path class="line-soft" d="M1420,360 V630 H1834"/>
  <path class="line-soft" d="M1820,610 H1834"/>

  <!-- Feedback loop -->
  <path class="loop" d="M1870,666 V860 H1120 V470"/>
  <text class="small" x="1490" y="880" text-anchor="middle">feedback write: x_fb[n+1] -&gt; delay lines</text>

  <!-- Wet path -->
  <path class="line" d="M1460,520 V720 H1510"/>
  <path class="line" d="M1620,770 H1680"/>

  <!-- Dry path + final mix -->
  <rect class="card" x="220" y="960" width="220" height="96" rx="12"/>
  <text class="label" x="330" y="1016" text-anchor="middle">Dry Tap</text>

  <rect class="card" x="1450" y="948" width="280" height="120" rx="12"/>
  <text class="label" x="1590" y="996" text-anchor="middle">Wet / Dry Mix</text>
  <text class="small" x="1590" y="1020" text-anchor="middle"><tspan class="mono">--wet --dry</tspan></text>

  <rect class="card" x="1790" y="966" width="220" height="96" rx="12"/>
  <text class="label" x="1900" y="1022" text-anchor="middle">Output</text>

  <path class="line" d="M210,336 V1008 H220"/>
  <path class="line" d="M440,1008 H1450"/>
  <path class="line" d="M1790,820 V948"/>
  <path class="line" d="M1730,1008 H1790"/>

  <!-- Equations -->
  <text class="eq" x="100" y="1128">q[n] = delay_read(x_fb[n])</text>
  <text class="eq" x="100" y="1154">r[n] = D(q[n])</text>
  <text class="eq" x="100" y="1180">m[n] = M r[n]</text>
  <text class="eq" x="560" y="1154">x_fb[n+1] = u[n]/sqrt(N) + G m[n] (optional DFM branch)</text>

  <rect class="notebox" x="1320" y="1104" width="690" height="92" rx="12"/>
  <text class="small" x="1350" y="1142"><tspan class="mono">--fdn-matrix</tspan>: hadamard | householder | random_orthogonal | circulant | elliptic | tv_unitary | graph | sdn_hybrid</text>
  <text class="small" x="1350" y="1170">Use <tspan class="mono">--fdn-tv-rate-hz</tspan> and <tspan class="mono">--fdn-tv-depth</tspan> when matrix is <tspan class="mono">tv_unitary</tspan>.</text>
</svg>
