<svg xmlns="http://www.w3.org/2000/svg" viewBox="0 0 1900 1120" role="img" aria-labelledby="title desc">
  <title id="title">Supported FDN Topology Variants (verbx)</title>
  <desc id="desc">Diagram showing currently supported FDN topology variants: render engine fixed 8-line Hadamard core, and IR-generation output decorrelation variants Hadamard, Householder, and Random Orthogonal for multi-channel output.</desc>
  <defs>
    <linearGradient id="bg" x1="0" y1="0" x2="0" y2="1">
      <stop offset="0%" stop-color="#f8fbff"/>
      <stop offset="100%" stop-color="#edf4ff"/>
    </linearGradient>
    <marker id="arrow" viewBox="0 0 10 10" refX="9" refY="5" markerWidth="8" markerHeight="8" orient="auto">
      <path d="M0,0 L10,5 L0,10 Z" fill="#2c415f"/>
    </marker>
    <style>
      .panel { fill: #ffffff; stroke: #d2e0f5; stroke-width: 2; }
      .card { fill: #fbfdff; stroke: #6f89ad; stroke-width: 2; rx: 14; }
      .card-soft { fill: #f3f8ff; stroke: #7a93b7; stroke-width: 2; rx: 14; }
      .line { stroke: #2c415f; stroke-width: 3; fill: none; marker-end: url(#arrow); }
      .title { fill: #152844; font-family: "Helvetica Neue", Helvetica, Arial, sans-serif; font-size: 35px; font-weight: 700; }
      .subtitle { fill: #2f466c; font-family: "Helvetica Neue", Helvetica, Arial, sans-serif; font-size: 21px; font-weight: 600; }
      .h2 { fill: #1d3355; font-family: "Helvetica Neue", Helvetica, Arial, sans-serif; font-size: 26px; font-weight: 700; }
      .label { fill: #1f3558; font-family: "Helvetica Neue", Helvetica, Arial, sans-serif; font-size: 22px; font-weight: 700; }
      .small { fill: #36507b; font-family: "Helvetica Neue", Helvetica, Arial, sans-serif; font-size: 18px; }
      .mono { font-family: "Menlo", "Consolas", monospace; }
      .note { fill: #244167; font-family: "Helvetica Neue", Helvetica, Arial, sans-serif; font-size: 18px; }
      .warn { fill: #7d2a2a; font-family: "Helvetica Neue", Helvetica, Arial, sans-serif; font-size: 18px; font-weight: 700; }
    </style>
  </defs>

  <rect x="0" y="0" width="1900" height="1120" fill="url(#bg)"/>
  <rect class="panel" x="55" y="85" width="1790" height="980" rx="18"/>

  <text class="title" x="92" y="145">Supported FDN Topologies in verbx (Current Behavior)</text>
  <text class="subtitle" x="92" y="180">Graphs correspond to implemented code paths in <tspan class="mono">AlgoReverbEngine</tspan> and <tspan class="mono">ir/modes_fdn.py</tspan>.</text>

  <rect class="card-soft" x="92" y="220" width="820" height="790" rx="16"/>
  <text class="h2" x="126" y="270">A) Render Path FDN Topology</text>

  <rect class="card" x="126" y="320" width="160" height="78" rx="12"/>
  <text class="label" x="206" y="368" text-anchor="middle">Input</text>

  <rect class="card" x="352" y="320" width="170" height="78" rx="12"/>
  <text class="label" x="437" y="352" text-anchor="middle">Pre-delay</text>
  <text class="small" x="437" y="378" text-anchor="middle">Diffusion allpass x6</text>

  <rect class="card" x="590" y="320" width="286" height="124" rx="12"/>
  <text class="label" x="733" y="362" text-anchor="middle">8-line FDN Core</text>
  <text class="small" x="733" y="389" text-anchor="middle">Hadamard feedback matrix</text>
  <text class="small" x="733" y="416" text-anchor="middle">RT60 gain + damping + DC block</text>

  <rect class="card" x="590" y="520" width="286" height="90" rx="12"/>
  <text class="label" x="733" y="575" text-anchor="middle">Wet / Dry Mix</text>

  <rect class="card" x="590" y="682" width="286" height="90" rx="12"/>
  <text class="label" x="733" y="737" text-anchor="middle">Output</text>

  <path class="line" d="M286,359 L352,359"/>
  <path class="line" d="M522,359 L590,359"/>
  <path class="line" d="M733,444 L733,520"/>
  <path class="line" d="M206,398 L206,565 L590,565"/>
  <path class="line" d="M733,610 L733,682"/>

  <text class="note" x="126" y="838">Render topology is currently fixed for stability (8 lines, Hadamard feedback).</text>
  <text class="note" x="126" y="866">Spatial width/shimmer stages are post-FDN; they do not change the core feedback topology.</text>

  <rect class="card-soft" x="955" y="220" width="850" height="790" rx="16"/>
  <text class="h2" x="990" y="270">B) IR Generation FDN Variant Graphs</text>

  <rect class="card" x="990" y="316" width="780" height="160" rx="12"/>
  <text class="label" x="1030" y="362">Variant 1: <tspan class="mono">hadamard</tspan> (default)</text>
  <rect class="card" x="1030" y="386" width="130" height="56" rx="10"/>
  <text class="small" x="1095" y="421" text-anchor="middle">Impulse</text>
  <rect class="card" x="1225" y="386" width="190" height="56" rx="10"/>
  <text class="small" x="1320" y="421" text-anchor="middle">Shared FDN8 core</text>
  <rect class="card" x="1490" y="386" width="220" height="56" rx="10"/>
  <text class="small" x="1600" y="410" text-anchor="middle">IR output channels</text>
  <text class="small" x="1600" y="432" text-anchor="middle">(no extra matrix stage)</text>
  <path class="line" d="M1160,414 L1225,414"/>
  <path class="line" d="M1415,414 L1490,414"/>

  <rect class="card" x="990" y="516" width="780" height="160" rx="12"/>
  <text class="label" x="1030" y="562">Variant 2: <tspan class="mono">householder</tspan> (channels &gt; 1)</text>
  <rect class="card" x="1030" y="586" width="130" height="56" rx="10"/>
  <text class="small" x="1095" y="621" text-anchor="middle">Impulse</text>
  <rect class="card" x="1225" y="586" width="190" height="56" rx="10"/>
  <text class="small" x="1320" y="621" text-anchor="middle">Shared FDN8 core</text>
  <rect class="card-soft" x="1455" y="586" width="170" height="56" rx="10"/>
  <text class="small" x="1540" y="621" text-anchor="middle">Householder matrix</text>
  <rect class="card" x="1665" y="586" width="105" height="56" rx="10"/>
  <text class="small" x="1718" y="621" text-anchor="middle">IR out</text>
  <path class="line" d="M1160,614 L1225,614"/>
  <path class="line" d="M1415,614 L1455,614"/>
  <path class="line" d="M1625,614 L1665,614"/>

  <rect class="card" x="990" y="716" width="780" height="160" rx="12"/>
  <text class="label" x="1030" y="762">Variant 3: <tspan class="mono">random_orthogonal</tspan> (channels &gt; 1)</text>
  <rect class="card" x="1030" y="786" width="130" height="56" rx="10"/>
  <text class="small" x="1095" y="821" text-anchor="middle">Impulse</text>
  <rect class="card" x="1225" y="786" width="190" height="56" rx="10"/>
  <text class="small" x="1320" y="821" text-anchor="middle">Shared FDN8 core</text>
  <rect class="card-soft" x="1455" y="786" width="170" height="56" rx="10"/>
  <text class="small" x="1540" y="821" text-anchor="middle">Seeded orthogonal Q</text>
  <rect class="card" x="1665" y="786" width="105" height="56" rx="10"/>
  <text class="small" x="1718" y="821" text-anchor="middle">IR out</text>
  <path class="line" d="M1160,814 L1225,814"/>
  <path class="line" d="M1415,814 L1455,814"/>
  <path class="line" d="M1625,814 L1665,814"/>

  <text class="warn" x="990" y="930">Note: <tspan class="mono">--fdn-lines</tspan> is reserved for future topology expansion; it does not alter core line count yet.</text>
</svg>
