<svg xmlns="http://www.w3.org/2000/svg" viewBox="0 0 1900 1120" role="img" aria-labelledby="title desc">
  <title id="title">Supported FDN Topology Variants (verbx)</title>
  <desc id="desc">Diagram showing currently supported FDN topology variants: render engine configurable-line Hadamard-derived core, and IR-generation output decorrelation variants Hadamard, Householder, and Random Orthogonal for multi-channel output.</desc>
  <defs>
    <linearGradient id="bg" x1="0" y1="0" x2="0" y2="1">
      <stop offset="0%" stop-color="#f8fbff"/>
      <stop offset="100%" stop-color="#edf4ff"/>
    </linearGradient>
    <marker id="arrow" viewBox="0 0 10 10" refX="9" refY="5" markerWidth="8" markerHeight="8" orient="auto">
      <path d="M0,0 L10,5 L0,10 Z" fill="#2c415f"/>
    </marker>
    <style>
      .panel { fill: #ffffff; stroke: #d2e0f5; stroke-width: 2; }
      .card { fill: #fbfdff; stroke: #6f89ad; stroke-width: 2; rx: 14; }
      .card-soft { fill: #f3f8ff; stroke: #7a93b7; stroke-width: 2; rx: 14; }
      .line { stroke: #2c415f; stroke-width: 3; fill: none; marker-end: url(#arrow); }
      .title { fill: #152844; font-family: "Helvetica Neue", Helvetica, Arial, sans-serif; font-size: 35px; font-weight: 700; }
      .subtitle { fill: #2f466c; font-family: "Helvetica Neue", Helvetica, Arial, sans-serif; font-size: 21px; font-weight: 600; }
      .h2 { fill: #1d3355; font-family: "Helvetica Neue", Helvetica, Arial, sans-serif; font-size: 25px; font-weight: 700; }
      .label { fill: #1f3558; font-family: "Helvetica Neue", Helvetica, Arial, sans-serif; font-size: 21px; font-weight: 700; }
      .small { fill: #36507b; font-family: "Helvetica Neue", Helvetica, Arial, sans-serif; font-size: 17px; }
      .mono { font-family: "Menlo", "Consolas", monospace; }
      .note { fill: #244167; font-family: "Helvetica Neue", Helvetica, Arial, sans-serif; font-size: 18px; }
      .warn { fill: #7d2a2a; font-family: "Helvetica Neue", Helvetica, Arial, sans-serif; font-size: 17px; font-weight: 700; }
    </style>
  </defs>

  <rect x="0" y="0" width="1900" height="1120" fill="url(#bg)"/>
  <rect class="panel" x="55" y="85" width="1790" height="980" rx="18"/>

  <text class="title" x="92" y="145">Supported FDN Topologies in verbx (Current Behavior)</text>
  <text class="subtitle" x="92" y="180">
    <tspan x="92" dy="0">Graphs correspond to implemented code paths in</tspan>
    <tspan x="92" dy="26"><tspan class="mono">AlgoReverbEngine</tspan> and <tspan class="mono">ir/modes_fdn.py</tspan>.</tspan>
  </text>

  <rect class="card-soft" x="92" y="220" width="820" height="790" rx="16"/>
  <text class="h2" x="126" y="270">A) Render Path FDN Topology</text>

  <rect class="card" x="126" y="320" width="160" height="78" rx="12"/>
  <text class="label" x="206" y="368" text-anchor="middle">Input</text>

  <rect class="card" x="352" y="320" width="170" height="78" rx="12"/>
  <text class="label" x="437" y="352" text-anchor="middle">Pre-delay</text>
  <text class="small" x="437" y="374" text-anchor="middle">
    <tspan x="437" dy="0">Diffusion allpass</tspan>
    <tspan x="437" dy="20">(default x6)</tspan>
  </text>

  <rect class="card" x="590" y="320" width="286" height="138" rx="12"/>
  <text class="label" x="733" y="362" text-anchor="middle">N-line FDN Core</text>
  <text class="small" x="733" y="389" text-anchor="middle">Hadamard feedback matrix</text>
  <text class="small" x="733" y="410" text-anchor="middle">RT60 gain + damping</text>
  <text class="small" x="733" y="431" text-anchor="middle">DC block in feedback loop</text>

  <rect class="card" x="590" y="520" width="286" height="90" rx="12"/>
  <text class="label" x="733" y="575" text-anchor="middle">Wet / Dry Mix</text>

  <rect class="card" x="590" y="682" width="286" height="90" rx="12"/>
  <text class="label" x="733" y="737" text-anchor="middle">Output</text>

  <path class="line" d="M286,359 L352,359"/>
  <path class="line" d="M522,359 L590,359"/>
  <path class="line" d="M733,458 L733,520"/>
  <path class="line" d="M206,398 L206,565 L590,565"/>
  <path class="line" d="M733,610 L733,682"/>

  <text class="note" x="126" y="838">
    <tspan x="126" dy="0">Render defaults use 8 lines with Hadamard feedback.</tspan>
    <tspan x="126" dy="23">Users can tune line count and delay lists from CLI.</tspan>
  </text>
  <text class="note" x="126" y="890">
    <tspan x="126" dy="0">Spatial width/shimmer stages are post-FDN;</tspan>
    <tspan x="126" dy="23">they do not change the core feedback topology.</tspan>
  </text>

  <rect class="card-soft" x="955" y="220" width="850" height="790" rx="16"/>
  <text class="h2" x="990" y="270">B) IR Generation FDN Variant Graphs</text>

  <rect class="card" x="990" y="316" width="780" height="160" rx="12"/>
  <text class="label" x="1030" y="362">Variant 1: <tspan class="mono">hadamard</tspan> (default)</text>
  <rect class="card" x="1030" y="386" width="130" height="56" rx="10"/>
  <text class="small" x="1095" y="421" text-anchor="middle">Impulse</text>
  <rect class="card" x="1225" y="382" width="190" height="72" rx="10"/>
  <text class="small" x="1320" y="412" text-anchor="middle">
    <tspan x="1320" dy="0">Shared configurable</tspan>
    <tspan x="1320" dy="20">FDN core</tspan>
  </text>
  <rect class="card" x="1490" y="386" width="220" height="56" rx="10"/>
  <text class="small" x="1600" y="410" text-anchor="middle">IR output channels</text>
  <text class="small" x="1600" y="432" text-anchor="middle">(no extra matrix stage)</text>
  <path class="line" d="M1160,418 L1225,418"/>
  <path class="line" d="M1415,418 L1490,418"/>

  <rect class="card" x="990" y="516" width="780" height="160" rx="12"/>
  <text class="label" x="1030" y="562">Variant 2: <tspan class="mono">householder</tspan> (ch &gt; 1)</text>
  <rect class="card" x="1030" y="586" width="130" height="56" rx="10"/>
  <text class="small" x="1095" y="621" text-anchor="middle">Impulse</text>
  <rect class="card" x="1225" y="582" width="190" height="72" rx="10"/>
  <text class="small" x="1320" y="612" text-anchor="middle">
    <tspan x="1320" dy="0">Shared configurable</tspan>
    <tspan x="1320" dy="20">FDN core</tspan>
  </text>
  <rect class="card-soft" x="1455" y="582" width="170" height="72" rx="10"/>
  <text class="small" x="1540" y="612" text-anchor="middle">Householder</text>
  <text class="small" x="1540" y="632" text-anchor="middle">matrix</text>
  <rect class="card" x="1665" y="582" width="105" height="72" rx="10"/>
  <text class="small" x="1718" y="622" text-anchor="middle">IR out</text>
  <path class="line" d="M1160,618 L1225,618"/>
  <path class="line" d="M1415,618 L1455,618"/>
  <path class="line" d="M1625,618 L1665,618"/>

  <rect class="card" x="990" y="716" width="780" height="160" rx="12"/>
  <text class="label" x="1030" y="748">
    <tspan x="1030" dy="0">Variant 3:</tspan>
    <tspan x="1030" dy="26"><tspan class="mono">random_orthogonal</tspan> (ch &gt; 1)</tspan>
  </text>
  <rect class="card" x="1030" y="786" width="130" height="56" rx="10"/>
  <text class="small" x="1095" y="821" text-anchor="middle">Impulse</text>
  <rect class="card" x="1225" y="782" width="190" height="72" rx="10"/>
  <text class="small" x="1320" y="812" text-anchor="middle">
    <tspan x="1320" dy="0">Shared configurable</tspan>
    <tspan x="1320" dy="20">FDN core</tspan>
  </text>
  <rect class="card-soft" x="1455" y="782" width="170" height="72" rx="10"/>
  <text class="small" x="1540" y="812" text-anchor="middle">Seeded orthogonal</text>
  <text class="small" x="1540" y="832" text-anchor="middle">Q matrix</text>
  <rect class="card" x="1665" y="782" width="105" height="72" rx="10"/>
  <text class="small" x="1718" y="822" text-anchor="middle">IR out</text>
  <path class="line" d="M1160,818 L1225,818"/>
  <path class="line" d="M1415,818 L1455,818"/>
  <path class="line" d="M1625,818 L1665,818"/>

  <rect class="card-soft" x="990" y="904" width="780" height="76" rx="10"/>
  <text class="warn" x="1015" y="935">
    <tspan x="1015" dy="0">Note (IR generation): <tspan class="mono">--fdn-lines</tspan> is currently reserved.</tspan>
    <tspan x="1015" dy="22">It does not change line count in the shared IR FDN core yet.</tspan>
  </text>
</svg>
