<svg xmlns="http://www.w3.org/2000/svg" width="960" height="300" viewBox="0 0 960 300" role="img" aria-labelledby="title desc">
<title id="title">Coupled mass spring damper tank</title><desc id="desc">Three lumped spring chains, drive, pickup, dampers, and coupling.</desc>
<rect width="960" height="300" fill="#f8fafc"/><text x="45" y="42" font-family="Arial" font-size="25" font-weight="bold" fill="#152338">Coupled mass-spring-damper tank</text><text x="45" y="68" font-family="Arial" font-size="15" fill="#43536a">Lumped mass nodes and spring elements form a bounded finite-element tank.</text>
<g stroke="#506a8c" stroke-width="3" fill="none"><path d="M95 120h35l10-12 16 24 16-24 16 24 16-24 16 24 10-12h35m0 0h35l10-12 16 24 16-24 16 24 16-24 16 24 10-12h35m0 0h35l10-12 16 24 16-24 16 24 16-24 16 24 10-12h35"/><path d="M95 195h35l10-12 16 24 16-24 16 24 16-24 16 24 10-12h35m0 0h35l10-12 16 24 16-24 16 24 16-24 16 24 10-12h35m0 0h35l10-12 16 24 16-24 16 24 16-24 16 24 10-12h35"/></g>
<g fill="#34a0a4" stroke="#1a5f70" stroke-width="2"><circle cx="280" cy="120" r="12"/><circle cx="470" cy="120" r="12"/><circle cx="660" cy="120" r="12"/><circle cx="280" cy="195" r="12"/><circle cx="470" cy="195" r="12"/><circle cx="660" cy="195" r="12"/></g><g stroke="#e76f51" stroke-width="3"><path d="M280 132v48M470 132v48M660 132v48M280 207v48M470 207v48M660 207v48"/></g>
<g font-family="Arial" font-size="16" fill="#152338"><text x="95" y="103">drive e</text><text x="710" y="103">pickup p</text><text x="98" y="145">spring 1</text><text x="98" y="220">spring 2</text><text x="423" y="165" fill="#c44f35">coupling kc</text><text x="690" y="270" fill="#c44f35">damper c</text></g><path d="M750 158h110" stroke="#152338" stroke-width="3"/><path d="M860 158l-13-8v16z" fill="#152338"/><text x="745" y="145" font-family="Arial" font-size="15" fill="#152338">wet output</text>
</svg>
