<svg xmlns="http://www.w3.org/2000/svg" viewBox="0 0 1900 1050" role="img" aria-labelledby="title desc">
  <title id="title">Reverb timeline graph with logarithmic dB axis and RT60 marker</title>
  <desc id="desc">A labeled reverb envelope in dB versus time showing dry peak, pre-delay, early reflections, late tail, and RT60 at minus 60 dB from peak.</desc>
  <defs>
    <linearGradient id="bg" x1="0" y1="0" x2="0" y2="1">
      <stop offset="0%" stop-color="#f6f9ff"/>
      <stop offset="100%" stop-color="#eaf1fb"/>
    </linearGradient>
    <marker id="arrow" viewBox="0 0 10 10" refX="9" refY="5" markerWidth="8" markerHeight="8" orient="auto-start-reverse">
      <path d="M0,0 L10,5 L0,10 Z" fill="#24344d"/>
    </marker>
    <style>
      .axis { stroke: #24344d; stroke-width: 3.2; }
      .grid { stroke: #d5dfef; stroke-width: 1.5; }
      .stage-marker { stroke: #8d9fb8; stroke-width: 2.2; stroke-dasharray: 8 8; }
      .rt60-line { stroke: #d23a3a; stroke-width: 2.8; stroke-dasharray: 10 8; }
      .envelope { stroke: #1f57f2; stroke-width: 8; fill: none; stroke-linecap: round; stroke-linejoin: round; }
      .pulse { fill: #4e7efc; opacity: 0.92; }
      .label { fill: #1f2d42; font-family: "Helvetica Neue", Helvetica, Arial, sans-serif; }
      .tick { font-size: 25px; }
      .title { font-size: 30px; font-weight: 700; }
      .stage { font-size: 26px; font-weight: 700; fill: #112344; }
      .legend { font-size: 23px; }
      .note { font-size: 22px; }
    </style>
  </defs>

  <rect x="0" y="0" width="1900" height="1050" fill="url(#bg)"/>

  <!-- Plot frame -->
  <rect x="300" y="120" width="1500" height="760" fill="#ffffff" stroke="#dde7f7" stroke-width="2"/>

  <!-- Horizontal grid: 0 dB to -70 dB in 10 dB steps -->
  <line class="grid" x1="300" y1="120" x2="1800" y2="120"/>
  <line class="grid" x1="300" y1="228.57" x2="1800" y2="228.57"/>
  <line class="grid" x1="300" y1="337.14" x2="1800" y2="337.14"/>
  <line class="grid" x1="300" y1="445.71" x2="1800" y2="445.71"/>
  <line class="grid" x1="300" y1="554.29" x2="1800" y2="554.29"/>
  <line class="grid" x1="300" y1="662.86" x2="1800" y2="662.86"/>
  <line class="grid" x1="300" y1="771.43" x2="1800" y2="771.43"/>
  <line class="grid" x1="300" y1="880" x2="1800" y2="880"/>

  <!-- Axes -->
  <line class="axis" x1="300" y1="880" x2="1800" y2="880" marker-end="url(#arrow)"/>
  <line class="axis" x1="300" y1="880" x2="300" y2="120" marker-end="url(#arrow)"/>

  <!-- Stage markers -->
  <line class="stage-marker" x1="360" y1="880" x2="360" y2="120"/>
  <line class="stage-marker" x1="560" y1="880" x2="560" y2="120"/>
  <line class="stage-marker" x1="760" y1="880" x2="760" y2="120"/>
  <line class="stage-marker" x1="1540" y1="880" x2="1540" y2="120"/>

  <!-- RT60 reference line at -60 dB -->
  <line class="rt60-line" x1="300" y1="771.43" x2="1800" y2="771.43"/>

  <!-- Reverb envelope (in dB space) -->
  <path class="envelope" d="
    M 300 880
    L 340 865
    L 365 130
    L 410 228.57
    L 500 337.14
    L 560 391.43
    L 620 434.86
    L 700 500.00
    L 780 554.29
    L 930 640.00
    L 1100 705.14
    L 1300 748.57
    L 1440 769.26
    L 1540 771.43
    L 1700 814.86
    L 1790 857.43
  "/>

  <!-- Early reflection pulses -->
  <rect class="pulse" x="595" y="405" width="11" height="210" rx="4"/>
  <rect class="pulse" x="628" y="430" width="11" height="185" rx="4"/>
  <rect class="pulse" x="661" y="455" width="11" height="160" rx="4"/>
  <rect class="pulse" x="694" y="482" width="11" height="133" rx="4"/>
  <rect class="pulse" x="727" y="510" width="11" height="105" rx="4"/>

  <!-- Axis titles -->
  <text class="label title" x="130" y="500" text-anchor="middle" dominant-baseline="middle" transform="rotate(-90 130 500)">Level (dB, logarithmic)</text>
  <text class="label title" x="1670" y="955">Time</text>

  <!-- dB tick labels -->
  <text class="label tick" x="235" y="126">0 dB</text>
  <text class="label tick" x="225" y="234">-10 dB</text>
  <text class="label tick" x="225" y="343">-20 dB</text>
  <text class="label tick" x="225" y="451">-30 dB</text>
  <text class="label tick" x="225" y="560">-40 dB</text>
  <text class="label tick" x="225" y="669">-50 dB</text>
  <text class="label tick" x="225" y="777">-60 dB</text>
  <text class="label tick" x="225" y="886">-70 dB</text>

  <!-- Time labels -->
  <text class="label tick" x="334" y="922">0 ms</text>
  <text class="label tick" x="480" y="922">pre-delay end</text>
  <text class="label tick" x="680" y="922">early region end</text>
  <text class="label tick" x="1492" y="922">RT60</text>

  <!-- Stage labels -->
  <text class="label stage" x="372" y="178">Dry Peak (0 dB reference)</text>
  <text class="label stage" x="430" y="305">Pre-delay window</text>
  <text class="label stage" x="592" y="383">Early Reflections</text>
  <text class="label stage" x="980" y="603">Late Tail / Wash</text>
  <text class="label stage" x="1446" y="744">RT60 point</text>

  <!-- RT60 callout -->
  <text class="label note" x="1070" y="760" fill="#b32121">RT60 is where the envelope reaches peak - 60 dB</text>

  <!-- Legend -->
  <rect x="1065" y="155" width="690" height="170" rx="14" fill="#f1f6ff" stroke="#dbe6f8" stroke-width="2"/>
  <line x1="1105" y1="205" x2="1220" y2="205" class="envelope" style="stroke-width:7"/>
  <text class="label legend" x="1245" y="214">Reverb envelope drawn in dB space</text>
  <rect class="pulse" x="1106" y="235" width="11" height="34" rx="4"/>
  <text class="label legend" x="1245" y="258">Early reflection arrivals</text>
  <line x1="1104" y1="286" x2="1222" y2="286" class="rt60-line"/>
  <text class="label legend" x="1245" y="294">-60 dB RT60 reference line</text>
</svg>
